<?xml version="1.0" encoding="UTF-8" standalone="no"?>
<svg
   xmlns:dc="http://purl.org/dc/elements/1.1/"
   xmlns:cc="http://creativecommons.org/ns#"
   xmlns:rdf="http://www.w3.org/1999/02/22-rdf-syntax-ns#"
   xmlns:svg="http://www.w3.org/2000/svg"
   xmlns="http://www.w3.org/2000/svg"
   xmlns:sodipodi="http://sodipodi.sourceforge.net/DTD/sodipodi-0.dtd"
   xmlns:inkscape="http://www.inkscape.org/namespaces/inkscape"
   version="1.0"
   width="642.16803"
   height="642.16803"
   viewBox="0 0 6421.6805 6421.6803"
   preserveAspectRatio="xMidYMid meet"
   id="svg4506"
   sodipodi:docname="maap_icon.svg"
   inkscape:version="0.92.1 r15371">
  <metadata
     id="metadata4512">
    <rdf:RDF>
      <cc:Work
         rdf:about="">
        <dc:format>image/svg+xml</dc:format>
        <dc:type
           rdf:resource="http://purl.org/dc/dcmitype/StillImage" />
        <dc:title></dc:title>
      </cc:Work>
    </rdf:RDF>
  </metadata>
  <defs
     id="defs4510" />
  <sodipodi:namedview
     pagecolor="#ffffff"
     bordercolor="#666666"
     borderopacity="1"
     objecttolerance="10"
     gridtolerance="10"
     guidetolerance="10"
     inkscape:pageopacity="0"
     inkscape:pageshadow="2"
     inkscape:window-width="1366"
     inkscape:window-height="706"
     id="namedview4508"
     showgrid="false"
     inkscape:zoom="0.45254834"
     inkscape:cx="584.19718"
     inkscape:cy="232.27118"
     inkscape:window-x="-8"
     inkscape:window-y="-8"
     inkscape:window-maximized="1"
     inkscape:current-layer="svg4506"
     fit-margin-left="50"
     fit-margin-top="50"
     fit-margin-bottom="50"
     fit-margin-right="50" />
  <g
     id="layer101"
     style="fill:#593399;stroke:none"
     transform="translate(-9.8637609,801.6804)">
    <path
       d="m 653.0625,2212.3906 c -56.35157,2.5779 -108.99125,35.474 -140.47266,81.5547 -25.88879,40.9355 -31.85046,90.8062 -30.92622,138.2809 -3.61099,227.202 -0.65576,454.4366 -1.6794,681.6527 0.0191,252.0404 0.022,504.0807 0.0158,756.1211 123.33333,0 246.66667,0 370,0 0,-321.9225 0,-643.8451 0,-965.7676 304.7456,292.8664 660.3093,535.2551 1051.4366,697.1522 386.7951,161.0633 804.2186,243.7164 1222.4008,257.373 353.7098,10.8822 708.9356,-34.3712 1049.0415,-131.8689 256.7799,-73.8343 504.5544,-178.9188 735.9519,-312.5218 244.3913,-140.3787 471.3571,-310.6182 676.5989,-503.6599 1.9823,319.7621 3.5249,639.5269 4.6875,959.293 123.2975,0 246.595,0 369.8926,0 -0.6304,-483.0876 0.8935,-966.1768 0.7688,-1449.2628 -0.9028,-36.4337 0.016,-73.7774 -10.722,-108.995 -19.8505,-50.9184 -70.3409,-85.5793 -123.428,-93.6736 -86.1077,-15.4106 -180.0646,25.2671 -225.782,100.2703 -87.6212,125.5042 -193.6608,236.6678 -301.5908,344.6688 -151.9034,146.7724 -321.1952,275.1843 -500.8697,385.9745 -417.6413,256.3453 -898.1376,410.9369 -1387.4506,441.0564 -364.6451,23.0318 -733.2151,-21.9045 -1081.6084,-131.7859 -442.2417,-138.138 -855.6663,-374.5622 -1189.851,-696.5998 -115.9719,-111.9449 -221.21954,-234.7656 -316.51318,-364.6717 -27.56477,-34.319 -64.08471,-62.8631 -107.00713,-74.7017 -20.31917,-6.3738 -41.58202,-9.8812 -62.89329,-9.8889 z"
       id="path4487"
       inkscape:connector-curvature="0" />
  </g>
  <g
     id="layer103"
     style="fill:#6c64d4;stroke:none"
     transform="translate(-9.8637609,801.6804)">
    <path
       d="m 3219.6035,976.63867 c -51.8665,0.0632 -100.178,32.33833 -126.0137,76.34573 -152.2696,211.4678 -293.1847,430.7637 -438.6179,646.9254 -278.0183,417.7888 -415.9016,635.6674 -693.9094,1053.4632 79.3124,60.1158 168.5811,105.711 260.1914,143.9004 377.9362,-568.71 615.8696,-937.422 993.8047,-1506.1328 377.5696,565.3555 635.1394,930.7109 1012.709,1496.0664 91.0181,-20.2121 173.6054,-65.8631 252.9648,-113.207 11.779,-10.1317 9.5533,-29.8828 -1.2363,-39.8887 -199.1449,-306.0362 -279.867,-411.0405 -480.5726,-716.055 -161.4937,-242.3857 -326.6682,-482.3021 -489.7823,-723.5944 -63.0909,-92.6501 -125.7276,-185.6528 -190.1627,-277.3501 -25.4231,-26.76928 -62.671,-41.10534 -99.375,-40.47313 z"
       id="path4503"
       inkscape:connector-curvature="0"
       sodipodi:nodetypes="ccccccccccccc" />
  </g>
</svg>
